<?xml version="1.0" encoding="UTF-8" standalone="no"?>
<!-- Generator: Adobe Illustrator 24.1.1, SVG Export Plug-In . SVG Version: 6.00 Build 0)  -->

<svg
   version="1.1"
   id="Layer_1"
   x="0px"
   y="0px"
   viewBox="0 0 512 512"
   style="enable-background:new 0 0 512 512;"
   xml:space="preserve"
   sodipodi:docname="Inkscape-01.svg"
   inkscape:version="1.1 (c68e22c387, 2021-05-23)"
   xmlns:inkscape="http://www.inkscape.org/namespaces/inkscape"
   xmlns:sodipodi="http://sodipodi.sourceforge.net/DTD/sodipodi-0.dtd"
   xmlns="http://www.w3.org/2000/svg"
   xmlns:svg="http://www.w3.org/2000/svg"><defs
   id="defs9" /><sodipodi:namedview
   id="namedview7"
   pagecolor="#505050"
   bordercolor="#eeeeee"
   borderopacity="1"
   inkscape:pageshadow="0"
   inkscape:pageopacity="0"
   inkscape:pagecheckerboard="0"
   showgrid="false"
   inkscape:zoom="1.7050781"
   inkscape:cx="255.70676"
   inkscape:cy="254.82703"
   inkscape:window-width="3440"
   inkscape:window-height="1361"
   inkscape:window-x="-9"
   inkscape:window-y="-9"
   inkscape:window-maximized="1"
   inkscape:current-layer="Layer_1" />
<g
   id="g4">
	<path
   d="M253.2,4.1C237.4,3.8,222,10,210.7,21.2L22.5,214c-71.3,71.3,46.2,65.3,88.6,92.3c19.7,12.8-63,29.3-46.2,46.2   c16.5,16.9,99.3,32.4,115.7,48.9c16.5,16.8-33.3,34.7-16.9,51.6c16,16.9,54.4,0.9,61.3,39.3c5,28.3,70.4,14.3,99.7-10   c18.3-15.6-31.6-15.6-15.1-32.5c41.2-41.6,77.7-18.7,92.8-57.1c8.3-20.5-62.2-35.2-43.4-48.4c44.8-31.5,209.3-47.5,133.5-123.3   L297.1,21.2C285.2,10.1,269.6,4,253.2,4.1L253.2,4.1z M254.8,22.4c11.3,0.1,22.7,4.3,30.8,12.4l74.5,75.9c6.9,6.8,6.9,21,2.8,25.1   l-37-30.1l-7.3,44.3L288,133.6l-49.8,31.5l-16.4-66.2l-26.5,57.5l-66.3-0.4c-12.8,0-10.9-13.2,2.3-26.5   c26-28.8,76.8-77.7,92.8-94.6C232.2,26.4,243.5,22.4,254.8,22.4L254.8,22.4z M463,369.6c-15.8,0.6-31.9,8.5-36.1,23.1   c0,9.6,74.5,15.1,70.4-2.3C494.3,375.7,478.8,369,463,369.6z M135.6,411.1c-21.5,1.2-44.5,16.9-26.3,32.3   c16.8,14.7,42.5-3.2,50.7-23.7C154.9,412.9,145.4,410.5,135.6,411.1L135.6,411.1L135.6,411.1z M417.8,412.7   c-21.1,19.2,3.6,39.3,24.2,26.1C447.5,435.1,441.6,417.3,417.8,412.7z"
   id="path2" />
</g>
<path
   style="fill:#ececec;stroke-width:0.586483"
   d="m 238.11899,163.48225 c -0.13733,-0.40321 -3.72433,-14.8527 -7.9711,-32.10997 -4.24678,-17.25727 -7.90196,-31.714829 -8.12264,-32.127895 -0.23089,-0.432185 -5.99888,11.394775 -13.5863,27.857965 l -13.18508,28.60899 -32.51425,0.15165 c -34.85502,0.16256 -37.96541,-0.031 -40.4503,-2.51785 -2.28167,-2.28342 -2.02565,-6.54814 0.72751,-12.11878 3.56867,-7.22072 11.17968,-15.32666 67.07309,-71.434837 26.77362,-26.876501 39.86503,-39.614719 42.11093,-40.974817 9.04006,-5.47459 22.28945,-7.441473 32.61455,-4.841658 6.39979,1.611436 13.45523,5.052379 17.74783,8.655615 5.84295,4.904608 78.95116,79.917737 80.11867,82.206247 1.73281,3.39658 2.51931,7.04373 2.50144,11.59968 -0.0185,4.70962 -1.33659,8.77974 -2.67679,8.26545 -0.45447,-0.17439 -8.80707,-6.81613 -18.56136,-14.75941 -9.75428,-7.94329 -17.91865,-14.22939 -18.14302,-13.96912 -0.22438,0.26027 -1.95624,10.04024 -3.84858,21.73325 -1.89233,11.69301 -3.69258,21.26002 -4.00057,21.26002 -0.30799,0 -7.04345,-3.47491 -14.96771,-7.72203 -7.92426,-4.24712 -14.6779,-7.71652 -15.00809,-7.7098 -0.3302,0.007 -11.48419,6.91258 -24.78665,15.34632 -13.30245,8.43374 -24.3293,15.33408 -24.50409,15.33408 -0.17479,0 -0.43016,-0.3299 -0.56749,-0.7331 z"
   id="path102" /></svg>
